<?xml version="1.0" encoding="UTF-8"?>
<svg width="22px" height="22px" viewBox="0 0 22 22" version="1.1" xmlns="http://www.w3.org/2000/svg" xmlns:xlink="http://www.w3.org/1999/xlink">
    <title>Icons/Social/Facebook</title>
    <g id="MVP1-Reloaded" stroke="none" stroke-width="1" fill="none" fill-rule="evenodd">
        <g id="Homepage" transform="translate(-1139.000000, -3695.000000)">
            <g id="Icons/Social/Facebook" transform="translate(1138.000000, 3694.000000)">
                <path d="M23,12.0672574 C23,5.9549754 18.0751367,1 12,1 C5.92486328,1 1,5.9549754 1,12.0672574 C1,17.5912454 5.02254102,22.1698044 10.28125,23 L10.28125,15.2663864 L7.48828125,15.2663864 L7.48828125,12.0672574 L10.28125,12.0672574 L10.28125,9.62900223 C10.28125,6.85527085 11.9234727,5.32314741 14.4361133,5.32314741 C15.6396035,5.32314741 16.8984375,5.53930478 16.8984375,5.53930478 L16.8984375,8.26288765 L15.5113633,8.26288765 C14.1448926,8.26288765 13.71875,9.11599594 13.71875,9.99121713 L13.71875,12.0672574 L16.7695312,12.0672574 L16.2818359,15.2663864 L13.71875,15.2663864 L13.71875,23 C18.977459,22.1698044 23,17.5912454 23,12.0672574" id="Fill-1" fill="#FFFFFF"></path>
                <g id="Facebook">
                    <polygon id="Fill-1" points="0 24 24 24 24 0 0 0"></polygon>
                </g>
            </g>
        </g>
    </g>
</svg>