<?xml version="1.0" encoding="UTF-8"?>
<svg width="20px" height="20px" viewBox="0 0 20 20" version="1.1" xmlns="http://www.w3.org/2000/svg" xmlns:xlink="http://www.w3.org/1999/xlink">
    <title>Icons/Social/Instagram</title>
    <g id="MVP1-Reloaded" stroke="none" stroke-width="1" fill="none" fill-rule="evenodd">
        <g id="Homepage" transform="translate(-1140.000000, -3735.000000)">
            <g id="Group" transform="translate(1138.000000, 3733.000000)">
                <polygon id="Fill-1" points="0 24 24 24 24 0 0 0"></polygon>
                <g id="Group-10" transform="translate(2.000000, 2.000000)">
                    <path d="M9.5,18 C6.86830306,18 6.5585192,17.9892504 5.5285123,17.9413658 C4.50730053,17.896413 3.94050356,17.7214877 3.5603587,17.5729478 C3.04340078,17.3726144 2.65641527,17.1214647 2.26747528,16.733502 C1.8785353,16.3435847 1.62640837,15.9565992 1.42607496,15.4406185 C1.2785123,15.0594964 1.10358703,14.4926995 1.05765693,13.4705105 C1.00977236,12.4414808 1,12.1316969 1,9.5 C1,6.86732582 1.00977236,6.5585192 1.05765693,5.52753507 C1.10358703,4.50632329 1.2785123,3.93952633 1.42607496,3.5603587 C1.62640837,3.04242355 1.8785353,2.65641527 2.26649805,2.26649805 C2.65641527,1.8785353 3.04340078,1.62640837 3.55938147,1.42607496 C3.94050356,1.2785123 4.50730053,1.10358703 5.52948954,1.05765693 C6.5585192,1.00977236 6.86830306,1 9.5,1 C12.1316969,1 12.4414808,1.00977236 13.4714877,1.05765693 C14.4926995,1.10358703 15.0594964,1.2785123 15.4396413,1.42607496 C15.9565992,1.62640837 16.3435847,1.8785353 16.7325247,2.26552081 C17.1214647,2.65641527 17.3735916,3.04242355 17.573925,3.55938147 C17.7214877,3.93952633 17.896413,4.50632329 17.9423431,5.5285123 C17.9902276,6.5585192 18,6.86732582 18,9.5 C18,12.1316969 17.9902276,12.4414808 17.9423431,13.4714877 C17.896413,14.4926995 17.7214877,15.0594964 17.573925,15.4396413 C17.3735916,15.9565992 17.1214647,16.3435847 16.733502,16.7325247 C16.3435847,17.1214647 15.9565992,17.3726144 15.4406185,17.5729478 C15.0594964,17.7214877 14.4926995,17.896413 13.4705105,17.9413658 C12.4414808,17.9892504 12.1316969,18 9.5,18" id="Fill-2" fill="#000000"></path>
                    <path d="M10,0 C7.284,0 6.943,0.012 5.877,0.061 C4.813,0.108 4.086,0.277 3.449,0.525 C2.792,0.78 2.234,1.122 1.679,1.679 C1.122,2.234 0.78,2.792 0.525,3.449 C0.277,4.086 0.108,4.812 0.061,5.877 C0.012,6.943 0,7.284 0,10 C0,12.716 0.012,13.057 0.061,14.123 C0.108,15.188 0.277,15.914 0.525,16.551 C0.78,17.208 1.122,17.766 1.679,18.321 C2.234,18.878 2.792,19.22 3.449,19.475 C4.086,19.723 4.813,19.892 5.877,19.939 C6.943,19.988 7.284,20 10,20 C12.716,20 13.057,19.988 14.123,19.939 C15.187,19.892 15.914,19.723 16.551,19.475 C17.208,19.22 17.766,18.878 18.321,18.321 C18.878,17.766 19.22,17.208 19.475,16.551 C19.723,15.914 19.892,15.188 19.939,14.123 C19.988,13.057 20,12.716 20,10 C20,7.284 19.988,6.943 19.939,5.877 C19.892,4.812 19.723,4.086 19.475,3.449 C19.22,2.792 18.878,2.234 18.321,1.679 C17.766,1.122 17.208,0.78 16.551,0.525 C15.914,0.277 15.187,0.108 14.123,0.061 C13.057,0.012 12.716,0 10,0 M10,1.802 C12.67,1.802 12.986,1.812 14.041,1.86 C15.016,1.904 15.545,2.067 15.897,2.204 C16.364,2.386 16.697,2.603 17.048,2.952 C17.397,3.303 17.614,3.636 17.796,4.103 C17.933,4.455 18.096,4.984 18.14,5.959 C18.188,7.014 18.198,7.33 18.198,10 C18.198,12.67 18.188,12.986 18.14,14.041 C18.096,15.016 17.933,15.545 17.796,15.897 C17.614,16.364 17.397,16.697 17.048,17.048 C16.697,17.397 16.364,17.614 15.897,17.796 C15.545,17.933 15.016,18.096 14.041,18.14 C12.986,18.188 12.67,18.198 10,18.198 C7.33,18.198 7.014,18.188 5.959,18.14 C4.984,18.096 4.455,17.933 4.103,17.796 C3.636,17.614 3.303,17.397 2.952,17.048 C2.603,16.697 2.386,16.364 2.204,15.897 C2.067,15.545 1.904,15.016 1.86,14.041 C1.812,12.986 1.802,12.67 1.802,10 C1.802,7.33 1.812,7.014 1.86,5.959 C1.904,4.984 2.067,4.455 2.204,4.103 C2.386,3.636 2.603,3.303 2.952,2.952 C3.303,2.603 3.636,2.386 4.103,2.204 C4.455,2.067 4.984,1.904 5.959,1.86 C7.014,1.812 7.33,1.802 10,1.802" id="Fill-4" fill="#FFFFFF"></path>
                    <path d="M10,13.2453749 C8.20740019,13.2453749 6.75462512,11.7925998 6.75462512,10 C6.75462512,8.20740019 8.20740019,6.75462512 10,6.75462512 C11.7925998,6.75462512 13.2453749,8.20740019 13.2453749,10 C13.2453749,11.7925998 11.7925998,13.2453749 10,13.2453749 M10,5 C7.23855891,5 5,7.23855891 5,10 C5,12.7614411 7.23855891,15 10,15 C12.7614411,15 15,12.7614411 15,10 C15,7.23855891 12.7614411,5 10,5" id="Fill-6" fill="#FFFFFF"></path>
                    <path d="M16,4 C16,4.5525 15.5525,5 15,5 C14.4475,5 14,4.5525 14,4 C14,3.4475 14.4475,3 15,3 C15.5525,3 16,3.4475 16,4" id="Fill-8" fill="#FFFFFF"></path>
                </g>
            </g>
        </g>
    </g>
</svg>